Coordinates
version=1
nRows=19
nColumns=63
inDegrees=yes

Units are S.I. units (second, meters, Newtons, ...)
If the header above contains a line with 'inDegrees', this indicates whether rotational values are in degrees (yes) or radians (no).

endheader
time	pelvis_tilt	pelvis_list	pelvis_rotation	pelvis_tx	pelvis_ty	pelvis_tz	hip_flexion_r	hip_adduction_r	hip_rotation_r	knee_angle_r	knee_angle_r_beta	ankle_angle_r	subtalar_angle_r	mtp_angle_r	hip_flexion_l	hip_adduction_l	hip_rotation_l	knee_angle_l	knee_angle_l_beta	ankle_angle_l	subtalar_angle_l	mtp_angle_l	L5_S1_Flex_Ext	L5_S1_Lat_Bending	L5_S1_axial_rotation	L4_L5_Flex_Ext	L4_L5_Lat_Bending	L4_L5_axial_rotation	L3_L4_Flex_Ext	L3_L4_Lat_Bending	L3_L4_axial_rotation	L2_L3_Flex_Ext	L2_L3_Lat_Bending	L2_L3_axial_rotation	L1_L2_Flex_Ext	L1_L2_Lat_Bending	L1_L2_axial_rotation	L1_T12_Flex_Ext	L1_T12_Lat_Bending	L1_T12_axial_rotation	Abs_r3	Abs_r2	Abs_r1	Abs_t1	Abs_t2	neck_flexion	neck_bending	neck_rotation	arm_flex_r	arm_add_r	arm_rot_r	elbow_flex_r	pro_sup_r	wrist_flex_r	wrist_dev_r	arm_flex_l	arm_add_l	arm_rot_l	elbow_flex_l	pro_sup_l	wrist_flex_l	wrist_dev_l
1.711538	0.337146	-1.795423	121.506506	0.317949	0.555225	0.959649	6.540075	-6.228826	-13.764425	19.010741	0.331800	38.291853	7.860874	0.000000	7.201842	3.562944	-3.124082	16.514038	0.288224	32.142330	14.259621	0.000000	-0.451596	-0.538904	-0.650491	-0.838659	-0.716743	-0.691147	-0.741927	-1.310292	-0.691147	-0.516129	-1.310292	-0.569180	-0.419352	-1.098933	-0.528524	-0.258042	-0.834763	-0.487868	-3.225705	-6.096192	-3.617836	0.000000	0.000000	23.146421	-0.651549	-7.684223	-4.257354	-21.250860	114.911447	10.753454	-0.070745	-3.709192	-11.122610	-4.951682	-23.283728	186.409943	10.784614	-4.181895	-8.802112	0.481728
1.730769	0.028566	-1.469622	121.177515	0.318685	0.555892	0.958130	5.851752	-6.216111	-13.658077	18.588710	0.324434	38.267066	8.249283	0.000000	6.454969	3.597679	-3.384215	16.050356	0.280132	32.114140	14.303405	0.000000	-0.469066	-0.612053	-0.717633	-0.871103	-0.814031	-0.762485	-0.770629	-1.488146	-0.762485	-0.536096	-1.488146	-0.627929	-0.435575	-1.248099	-0.583077	-0.268024	-0.948071	-0.538225	-3.350493	-6.923669	-3.991258	0.000000	0.000000	23.438037	-0.052619	-8.657345	-4.337843	-18.876057	119.852976	9.979675	-2.335590	-3.160306	-13.524139	-5.828931	-24.286041	192.596753	10.697789	-1.144138	-9.750779	2.098430
1.750000	-0.256046	-1.221353	120.694075	0.319565	0.556807	0.956553	5.206139	-6.209350	-13.540295	18.018912	0.314489	38.134836	8.855947	0.000000	5.712042	3.655159	-3.701276	15.424204	0.269203	31.896078	14.204808	0.000000	-0.475083	-0.682441	-0.762354	-0.882276	-0.907647	-0.810001	-0.780514	-1.659288	-0.810001	-0.542972	-1.659288	-0.667060	-0.441162	-1.391634	-0.619412	-0.271462	-1.057101	-0.571765	-3.393469	-7.719912	-4.239983	0.000000	0.000000	23.677115	0.580721	-9.723967	-3.997936	-16.491317	122.285368	9.452789	-2.569814	-2.413754	-15.605040	-6.836048	-25.419932	193.080667	10.875272	4.205593	-10.672214	3.558232
1.769231	-0.521908	-1.044337	120.069780	0.320559	0.557959	0.954961	4.609612	-6.205013	-13.342152	17.322301	0.302331	37.896048	9.563280	0.000000	4.975852	3.736217	-4.122222	14.648842	0.255671	31.507401	14.048418	0.000000	-0.468525	-0.748874	-0.788161	-0.870097	-0.996003	-0.837421	-0.769739	-1.820813	-0.837421	-0.535477	-1.820813	-0.689641	-0.435072	-1.527105	-0.640380	-0.267715	-1.160006	-0.591120	-3.346625	-8.471417	-4.383513	0.000000	0.000000	23.859544	1.197688	-10.803915	-3.307270	-14.137851	121.961227	9.099099	-0.761061	-1.496271	-17.336540	-7.852433	-26.633255	188.374100	11.294644	11.456272	-11.568323	4.775190
1.788462	-0.720291	-0.902357	119.411464	0.321441	0.559374	0.953482	4.022934	-6.172244	-13.220710	16.481760	0.287661	37.542760	10.425305	0.000000	4.263626	3.802431	-4.518575	13.770016	0.240332	30.968955	13.810530	0.000000	-0.449555	-0.801451	-0.814049	-0.834868	-1.065929	-0.864927	-0.738573	-1.948647	-0.864927	-0.513796	-1.948647	-0.712293	-0.417456	-1.634318	-0.661415	-0.256875	-1.241447	-0.610537	-3.211123	-9.066169	-4.527495	0.000000	0.000000	24.000772	1.751394	-11.784311	-2.223454	-11.946689	119.409931	8.639039	2.482697	-0.508928	-18.853538	-8.228193	-27.550126	185.082597	10.881172	14.826351	-11.820461	4.942082
1.807692	-0.899150	-0.831896	118.735189	0.322308	0.560941	0.952000	3.482263	-6.162258	-13.133983	15.563019	0.271626	37.123872	11.364641	0.000000	3.592485	3.897819	-4.923867	12.807510	0.223533	30.310033	13.565507	0.000000	-0.417565	-0.850502	-0.846566	-0.775461	-1.131168	-0.899477	-0.686018	-2.067911	-0.899477	-0.477236	-2.067911	-0.740746	-0.387751	-1.734344	-0.687835	-0.238597	-1.317428	-0.634925	-2.982628	-9.621053	-4.708348	0.000000	0.000000	24.158446	2.287534	-12.640380	-0.194732	-9.833896	120.727692	7.179977	2.145558	0.754172	-20.720149	-8.276431	-28.394918	179.484497	10.371496	17.786968	-11.835412	4.744626
1.826923	-1.036058	-0.858369	118.079237	0.323011	0.562410	0.950526	3.045335	-6.179040	-13.077962	14.642928	0.255567	36.680768	12.307211	0.000000	3.021672	4.027629	-5.220598	11.819464	0.206289	29.586995	13.206605	0.000000	-0.370996	-0.891364	-0.878154	-0.688977	-1.185514	-0.933038	-0.609509	-2.167263	-0.933038	-0.424011	-2.167263	-0.768384	-0.344507	-1.817670	-0.713500	-0.211987	-1.380723	-0.658615	-2.649987	-10.083290	-4.884027	0.000000	0.000000	24.425816	2.760342	-13.291103	2.034436	-7.880691	121.583532	5.743945	1.862338	1.677138	-22.165918	-7.935373	-29.082854	172.188566	9.716757	20.195697	-11.559294	4.350819
1.846154	-1.122963	-0.967731	117.505759	0.323452	0.563664	0.949119	2.712617	-6.218283	-13.090106	13.778288	0.240476	36.232606	13.199397	0.000000	2.572164	4.179468	-5.374191	10.869445	0.189708	28.870791	12.787798	0.000000	-0.313296	-0.920564	-0.919979	-0.581822	-1.224351	-0.977478	-0.514714	-2.238260	-0.977478	-0.358066	-2.238260	-0.804982	-0.290927	-1.877215	-0.747483	-0.179017	-1.425954	-0.689984	-2.237842	-10.413608	-5.116647	0.000000	0.000000	24.816205	3.212600	-13.625475	4.384063	-6.120359	122.078036	4.449928	1.717218	2.080344	-23.132704	-7.221296	-29.559937	163.477935	8.918261	22.043261	-11.032964	3.851681
1.865385	-1.146466	-1.132250	117.087028	0.323536	0.564638	0.947934	2.474335	-6.272449	-13.267978	13.017529	0.227199	35.792171	14.048732	0.000000	2.259533	4.349647	-5.149308	10.017094	0.174831	28.163481	12.076548	0.000000	-0.249310	-0.933605	-0.992559	-0.462994	-1.241694	-1.054594	-0.409591	-2.269967	-1.054594	-0.284936	-2.269967	-0.868489	-0.231509	-1.903807	-0.806454	-0.142456	-1.446154	-0.744419	-1.780796	-10.561125	-5.520314	0.000000	0.000000	25.311144	3.702711	-13.520057	6.960820	-4.580594	123.304968	3.367691	1.445192	1.996783	-23.736982	-6.206110	-29.761028	153.581010	7.966021	23.315902	-10.274659	3.151660
1.884615	-1.143676	-1.292394	116.806956	0.323410	0.565598	0.947181	2.296666	-6.334166	-13.532433	12.401903	0.216454	35.317804	14.766764	0.000000	2.037425	4.520454	-4.695086	9.291304	0.162164	27.457825	11.234628	0.000000	-0.189791	-0.931781	-1.095258	-0.352460	-1.239269	-1.163712	-0.311807	-2.265533	-1.163712	-0.216912	-2.265533	-0.958351	-0.176240	-1.900088	-0.889897	-0.108446	-1.443329	-0.821444	-1.355656	-10.540497	-6.091497	0.000000	0.000000	25.823366	4.263768	-12.944656	10.228516	-2.654631	130.717539	0.712139	-3.110996	2.171011	-25.271035	-4.391397	-29.143067	147.946101	5.394753	20.090779	-8.412020	0.896168
1.903846	-1.093193	-1.479440	116.656063	0.322914	0.566242	0.946620	2.221226	-6.400508	-13.860619	11.962964	0.208793	34.896636	15.339351	0.000000	1.928863	4.693043	-3.934971	8.700554	0.151853	26.802612	10.129613	0.000000	-0.128006	-0.916660	-1.204579	-0.237719	-1.219158	-1.279865	-0.210300	-2.228767	-1.279865	-0.146298	-2.228767	-1.054007	-0.118866	-1.869253	-0.978720	-0.073142	-1.419906	-0.903434	-0.914331	-10.369440	-6.699507	0.000000	0.000000	26.348862	4.797022	-12.119846	13.284698	-1.144763	135.623091	-0.761470	-5.131889	1.897503	-26.152968	-2.368091	-28.384962	139.726810	3.679134	18.382153	-6.616199	-1.335651
1.923077	-0.997561	-1.668620	116.624462	0.322053	0.566649	0.946198	2.227340	-6.455485	-14.228113	11.696594	0.204144	34.546586	15.767932	0.000000	1.906894	4.848215	-2.919905	8.243808	0.143882	26.210948	8.818670	0.000000	-0.065025	-0.889423	-1.311148	-0.120759	-1.182933	-1.393095	-0.106830	-2.162543	-1.393095	-0.074318	-2.162543	-1.147255	-0.060383	-1.813711	-1.065308	-0.037156	-1.377716	-0.983361	-0.464470	-10.061330	-7.292214	0.000000	0.000000	26.841812	5.258552	-11.139790	16.001277	0.027962	137.942035	-1.175303	-4.865383	1.334899	-26.385213	-0.141550	-27.350007	130.229397	2.872084	17.839123	-4.943691	-3.611289
1.942308	-0.857497	-1.826267	116.719497	0.320803	0.566900	0.945880	2.273353	-6.478827	-14.644415	11.578397	0.202081	34.268783	16.055340	0.000000	1.943529	4.963188	-1.728322	7.931378	0.138429	25.715748	7.413919	0.000000	-0.002766	-0.849866	-1.411641	-0.005138	-1.130322	-1.499868	-0.004545	-2.066365	-1.499868	-0.003162	-2.066365	-1.235186	-0.002569	-1.733048	-1.146958	-0.001581	-1.316443	-1.058731	-0.019760	-9.613859	-7.851122	0.000000	0.000000	27.246818	5.597824	-10.075296	18.264011	0.904916	137.728795	-0.659010	-2.790775	0.669977	-25.957342	2.165258	-25.918772	120.664924	2.946238	18.002973	-3.544684	-5.821707
1.961538	-0.670447	-1.912572	116.941252	0.319108	0.567068	0.945700	2.316750	-6.460791	-15.195155	11.593827	0.202350	34.075175	16.312141	0.000000	1.997611	5.035479	-0.220855	7.753774	0.135329	25.293656	5.727533	0.000000	0.055002	-0.794929	-1.497821	0.102144	-1.057255	-1.591435	0.090363	-1.932790	-1.591435	0.062862	-1.932790	-1.310593	0.051075	-1.621019	-1.216980	0.031428	-1.231345	-1.123366	0.392873	-8.992394	-8.330431	0.000000	0.000000	27.530684	5.719812	-8.985633	19.978655	1.485990	135.174488	0.665884	0.681766	0.072549	-24.743899	4.506806	-24.077587	112.627254	3.758332	17.754150	-2.902224	-7.824925
1.980769	-0.434397	-1.928178	117.261670	0.317021	0.567164	0.945567	2.354796	-6.381665	-15.750307	11.719813	0.204549	33.953156	16.412015	0.000000	2.069821	5.029403	1.249819	7.718049	0.134705	25.028386	4.224885	0.000000	0.109837	-0.725689	-1.570871	0.203978	-0.965167	-1.669050	0.180451	-1.764441	-1.669050	0.125532	-1.764441	-1.374512	0.101994	-1.479825	-1.276333	0.062761	-1.124093	-1.178153	0.784553	-8.209141	-8.736713	0.000000	0.000000	27.693998	5.601943	-7.912518	21.132630	1.780448	130.746243	2.664487	5.193639	-0.366254	-22.815339	6.687328	-21.883019	106.208841	5.315712	18.411223	-2.560280	-8.955583
2.000000	-0.155420	-1.883592	117.655782	0.314616	0.567194	0.945436	2.392927	-6.247104	-16.287225	11.946131	0.208499	33.900372	16.363288	0.000000	2.160034	4.951514	2.640498	7.817452	0.136440	24.914439	2.923245	0.000000	0.162331	-0.645129	-1.627512	0.301464	-0.858021	-1.729231	0.266693	-1.568566	-1.729231	0.185528	-1.568566	-1.424073	0.150740	-1.315547	-1.322353	0.092756	-0.999305	-1.220634	1.159511	-7.297827	-9.051733	0.000000	0.000000	27.776319	5.251240	-6.884687	21.715908	1.776320	124.614565	5.281614	10.850329	-0.563218	-20.237650	8.767092	-19.456014	101.607480	7.573404	20.139845	-2.220862	-8.923827
2.019231	0.148350	-1.794192	118.117805	0.312031	0.567183	0.945259	2.427425	-6.068893	-16.788347	12.252367	0.213844	33.901855	16.151885	0.000000	2.274415	4.810933	3.884367	8.054493	0.140577	24.942805	1.899612	0.000000	0.212739	-0.559597	-1.671933	0.395077	-0.744264	-1.776429	0.349508	-1.360604	-1.776429	0.243139	-1.360604	-1.462942	0.197549	-1.141130	-1.358446	0.121559	-0.866816	-1.253950	1.519570	-6.330272	-9.298791	0.000000	0.000000	27.817743	4.758071	-5.924715	21.798372	1.462663	117.060473	8.458263	17.657807	-0.439789	-17.169783	10.750567	-16.895519	99.602453	10.459409	22.564024	-1.684657	-7.736410
2.038462	0.445648	-1.663638	118.622316	0.309441	0.567181	0.944993	2.441458	-5.861264	-17.194961	12.615467	0.220181	33.935818	15.746969	0.000000	2.390333	4.624967	4.920870	8.405506	0.146704	25.094050	1.198407	0.000000	0.258984	-0.476452	-1.707071	0.480959	-0.633681	-1.813763	0.425484	-1.158446	-1.813763	0.295993	-1.158446	-1.493687	0.240492	-0.971581	-1.386995	0.147983	-0.738025	-1.280303	1.849895	-5.389723	-9.494217	0.000000	0.000000	27.845206	4.220910	-5.070425	21.515025	0.869139	108.733468	12.080034	25.405719	-0.018749	-13.734338	12.651930	-14.313070	100.640547	13.873129	25.417015	-0.843617	-5.593502
2.057692	0.689821	-1.508766	119.140736	0.307095	0.567233	0.944581	2.431551	-5.658444	-17.467722	13.023153	0.227297	34.001176	15.137615	0.000000	2.496676	4.423825	5.655712	8.855485	0.154557	25.337391	0.887729	0.000000	0.299952	-0.406418	-1.742048	0.557041	-0.540536	-1.850926	0.492791	-0.988165	-1.850926	0.342815	-0.988165	-1.524292	0.278536	-0.828768	-1.415414	0.171393	-0.629542	-1.306536	2.142528	-4.597484	-9.688750	0.000000	0.000000	27.877437	3.748589	-4.372747	21.039832	0.159465	100.920919	15.766453	33.804881	0.519168	-10.179528	14.541089	-12.022246	103.253125	17.695873	28.682619	0.287067	-2.797657
